<?xml version="1.0" encoding="UTF-8"?>
<svg id="Layer_1" xmlns="http://www.w3.org/2000/svg" version="1.1" viewBox="0 0 28.12 40">
  <!-- Generator: Adobe Illustrator 29.8.1, SVG Export Plug-In . SVG Version: 2.1.1 Build 2)  -->
  <defs>
    <style>
      .st0 {
        fill: #fff;
      }
    </style>
  </defs>
  <path class="st0" d="M21.09,14.06c0,3.88-3.15,7.03-7.03,7.03s-7.03-3.15-7.03-7.03,3.15-7.03,7.03-7.03,7.03,3.15,7.03,7.03ZM0,14.06c0,6.95,5.3,14.48,9.98,21,1.11,1.55,2.18,3.03,3.1,4.42.22.33.58.52.97.52s.76-.2.98-.52c.93-1.39,1.99-2.87,3.1-4.42,4.68-6.51,9.98-14.05,9.98-21C28.12,6.31,21.82,0,14.06,0S0,6.31,0,14.06Z"/>
  <circle class="st0" cx="14.06" cy="14.06" r="4.69"/>
</svg>